<svg width="800" height="600" xmlns="http://www.w3.org/2000/svg">

 <g>
  <title>Layer 1</title>
  <text xml:space="preserve" text-anchor="start" font-family="Noto Sans JP" font-size="24" id="svg_12" y="191.2" x="205.6" stroke-width="0" stroke="#000" fill="#000000">Максим Григлевич</text>
  <line id="svg_14" y2="216.2" x2="411.6" y1="204.2" x1="194.6" stroke="#000" fill="none"/>
  <line id="svg_15" y2="211.2" x2="408.6" y1="168.2" x1="409.6" stroke="#000" fill="none"/>
  <line id="svg_16" y2="167.2" x2="237.6" y1="172.2" x1="395.6" stroke="#000" fill="none"/>
  <path id="svg_20" d="m194.16848,181.20289c2.84448,-3.1729 3.41624,-7.50282 1.86885,-11.14425l-5.71054,6.46075l-5.62919,-1.06182l-1.86523,-5.26086l5.6961,-6.44574c-3.91811,-0.95635 -8.23468,0.19822 -11.06663,3.35856c-2.98665,3.33178 -3.47542,7.94563 -1.62684,11.689l-14.88504,16.60685c-1.58384,1.7656 -1.39089,4.44348 0.42898,5.9795c1.81987,1.53494 4.57948,1.34942 6.16278,-0.4162l14.8676,-16.59046c4.09261,1.27979 8.7587,0.17159 11.75917,-3.17533l0,0z" stroke="#000" fill="#fff"/>
  <path id="svg_21" d="m418.48176,210.8713c0.93366,0.57229 2.20783,1.90847 3.19452,1.41961c0.64721,-0.31642 1.02593,-2.1081 1.42804,-3.05121c3.02687,-7.08947 6.31652,-15.15295 8.71097,-22.05144c0,-0.30777 0.13751,-0.54572 -0.06681,-0.96413c1.33942,-2.59204 2.24864,-5.43992 3.71203,-8.32428c0.46347,-0.91655 0.93497,-2.18847 1.58504,-2.55497l1.20061,-0.59577c1.52629,-0.46662 2.64113,-0.45055 3.70528,0.76636c0.5396,0.6205 0.78784,1.64397 1.30978,2.26015c0.35297,0.42087 1.69783,1.45608 2.19794,1.29601c0.38859,-0.12484 0.70883,-0.59022 0.98123,-1.17984l0.94849,-2.08338c0.26589,-0.59268 0.41718,-1.16314 0.29319,-1.61862c-0.15959,-0.58651 -1.62457,-1.36091 -2.11505,-1.48205c-0.71973,-0.18355 -1.57281,0.13103 -2.3058,-0.06674c-1.44052,-0.39369 -2.06203,-1.49379 -2.56627,-3.27249c-3.55401,-2.48388 -8.33875,-4.0988 -13.9098,-2.01541c-1.51122,0.5655 -2.95981,0.99442 -3.95325,2.14335c-0.19911,0.66746 0.19469,0.80035 0.60771,0.7923c-0.32309,0.34982 -0.84501,0.55253 -0.54376,1.37389c3.40011,-1.85657 10.00281,-2.49809 10.45118,1.3022c0.098,0.84609 -0.53831,2.01108 -0.92951,2.97335c-1.23336,3.03578 -2.74042,5.49864 -3.83341,8.24828c-0.40627,0.0272 -0.49881,0.29109 -0.71559,0.46476c-3.54854,6.15623 -7.42849,13.83777 -10.7657,20.72823c-0.44448,0.91654 -1.49641,2.27127 -1.36567,3.08768c0.19625,1.24905 1.81118,1.83063 2.74458,2.40416l0,0z" stroke="#000" fill="#fff"/>
 </g>
</svg>